<?xml version="1.0" encoding="UTF-8" standalone="no"?>
<svg
   xmlns:dc="http://purl.org/dc/elements/1.1/"
   xmlns:cc="http://creativecommons.org/ns#"
   xmlns:rdf="http://www.w3.org/1999/02/22-rdf-syntax-ns#"
   xmlns:svg="http://www.w3.org/2000/svg"
   xmlns="http://www.w3.org/2000/svg"
   id="svg624"
   preserveAspectRatio="xMidYMid meet"
   viewBox="0 0 225 154"
   height="154px"
   width="225px"
   version="1.0">
  <metadata
     id="metadata630">
    <rdf:RDF>
      <cc:Work
         rdf:about="">
        <dc:format>image/svg+xml</dc:format>
        <dc:type
           rdf:resource="http://purl.org/dc/dcmitype/StillImage" />
        <dc:title></dc:title>
      </cc:Work>
    </rdf:RDF>
  </metadata>
  <defs
     id="defs628" />
  <g
     id="g344"
     fill="#070909">
    <path
       id="path340"
       d="M19.5 151.8 c2.7 -9 7.8 -15.5 12.8 -16.4 3.2 -0.5 3.7 -0.4 3.7 1.2 0 1.1 -1.4 2.5 -3.3 3.5 -2.3 1.1 -4 3.3 -6.2 7.7 -2.4 4.9 -3.5 6.2 -5.3 6.2 -2 0 -2.2 -0.4 -1.7 -2.2z" />
    <path
       id="path342"
       d="M48.6 149.1 c-1.8 -5.2 -5.9 -10.1 -8.2 -10.1 -0.8 0 -1.4 -1 -1.4 -2.1 0 -1.9 0.4 -2.1 4.3 -1.5 3.9 0.6 4.5 0.4 7.2 -2.5 4.9 -5 18.8 -14.7 21.9 -15.1 2.6 -0.3 3.1 -1.1 6.6 -11.3 7.6 -21.9 9.4 -25.7 14.2 -29.2 2.3 -1.8 7.5 -4.2 11.3 -5.4 8.1 -2.4 8.4 -2.6 9.1 -6.4 0.3 -1.5 1 -3.7 1.5 -4.7 0.8 -1.4 0.5 -3 -1.1 -6.4 -3 -6.2 -2.6 -17.1 0.9 -20.8 3.6 -3.8 14.8 -5.9 19.2 -3.6 3.1 1.7 2.2 3 -2 3 -6.7 0 -13.1 1.2 -13.1 2.5 0 0.7 -0.7 1.8 -1.5 2.5 -3 2.5 -1.3 15 2 15 1.1 0 1.5 1.1 1.5 4 0 2.2 -0.4 4 -1 4 -0.5 0 -1 0.5 -1 1 0 0.6 0.7 1 1.5 1 1.1 0 1.5 -1.1 1.5 -4.1 l0 -4 5.8 0.2 c6.7 0.2 9.4 -1.1 11.1 -5.6 1.4 -3.9 1.5 -9.5 0.1 -9.5 -0.5 0 -1 -1.6 -1 -3.5 0 -1.9 0.4 -3.5 0.9 -3.5 1.6 0 4.1 4.8 5.2 9.9 1.4 6.4 -0.3 10.5 -6.5 15.6 -4.4 3.5 -4.9 3.7 -9.6 3.2 -4.9 -0.6 -5 -0.6 -5 2.1 0 1.8 0.8 3.2 2.4 4.2 8.6 5.4 11.9 8.1 18.8 15.1 8.4 8.6 11.6 14.3 14.3 25.7 1.9 7.5 2.5 8.1 7 6 2.1 -0.9 2.8 -0.9 3.8 0.4 0.6 0.8 3.2 3 5.7 4.9 2.5 1.9 5.5 4.5 6.7 5.9 1.2 1.5 3.8 3.5 5.8 4.5 l3.7 2 2.2 -2.8 2.3 -2.8 4 2.3 c13.8 8 20.2 12.4 20.6 14 0.3 1.1 1.4 1.8 2.7 1.8 2 0 2.2 0.4 1.6 3.1 -0.3 1.7 -0.6 3.6 -0.6 4.1 0 0.5 -1.7 0.8 -3.7 0.6 -3.6 -0.3 -3.8 -0.5 -4.3 -4.3 -0.4 -3.5 -1 -4.3 -5.2 -6.5 -2.5 -1.4 -6.7 -3.8 -9.2 -5.3 l-4.6 -2.9 -3.6 3 c-5.1 4.2 -7.4 8.1 -7.4 12.5 0 3.5 -0.2 3.7 -3.2 3.7 -2.6 0 -3.6 -0.6 -4.5 -2.7 -1.9 -4 -1.6 -7 1.2 -11.1 1.4 -2 2.5 -4.1 2.5 -4.6 0 -1.1 -7.8 -8.6 -12.2 -11.8 l-2.8 -1.9 -0.1 4.8 c0 2.6 0 9.4 0.1 15.1 l0.1 10.2 -3.3 0 c-5.2 -0.1 -7.2 -2.2 -6.5 -7 0.4 -3.5 0.2 -4.3 -2.4 -6.4 -1.6 -1.3 -4.2 -2.7 -5.9 -3.1 -1.6 -0.4 -3 -1.2 -3 -1.9 0 -1.4 -11.7 -3.8 -14.8 -2.9 -1.2 0.3 -2.2 1.2 -2.2 1.9 0 0.8 -0.9 1.4 -2 1.4 -1.1 0 -2 0.7 -2 1.5 0 4.2 -12.3 -0.2 -14.5 -5.3 -0.7 -1.6 -1.8 -2.2 -4.2 -2.2 -1.8 0 -3.3 0.5 -3.3 1 0 0.6 -0.9 1 -2 1 -1.1 0 -2 0.5 -2 1 0 0.6 -1.5 1 -3.4 1 -4.3 0 -5.8 -3.3 -5.4 -11.6 l0.3 -5.9 4.6 -0.3 c5.1 -0.3 7.9 1.4 7.9 5 0 1.8 0.4 2 3.2 1.4 7.9 -1.6 17.1 -1.8 22.8 -0.6 3.3 0.7 6 1.7 6 2.1 0 0.5 0.5 0.9 1 0.9 0.6 0 1 -1.3 1 -3 0 -2.5 0.4 -3 2.5 -3 1.6 0 2.5 -0.6 2.5 -1.5 0 -1 1 -1.5 3.4 -1.5 3.2 0 3.5 0.2 4.1 4 0.4 2.2 0.4 5.2 0 6.8 -0.5 2.7 -0.3 2.9 3.7 3.8 l4.3 1 -1.8 -9 c-2.2 -11.2 -7.1 -23.9 -11.2 -28.7 -1.6 -2 -5.7 -5.8 -9 -8.5 -3.3 -2.6 -6.2 -5.1 -6.5 -5.4 -0.3 -0.3 -2 -1.7 -3.7 -3.2 -3.1 -2.5 -3.5 -2.6 -7 -1.3 -2.1 0.7 -6.3 2.1 -9.3 3 -3 0.9 -7.6 2.7 -10.2 3.8 -4.6 2.1 -4.9 2.5 -8.9 12.2 -2.3 5.5 -4.5 10.9 -4.9 12 -0.4 1.1 -1.5 3.7 -2.4 5.7 -1.9 4.3 -4.8 22.2 -3.9 24.3 0.3 0.9 0.2 3.5 -0.1 6 -0.7 4.3 -0.9 4.5 -4 4.5 l-3.3 0 -0.7 -7.4 c-0.4 -4.1 -0.4 -8.7 0 -10.2 l0.7 -2.7 -5.4 3.9 c-11.6 8.3 -12.1 8.8 -11.3 11.8 0.3 1.5 1.3 3 2 3.3 1 0.3 1.4 2.3 1.4 5.9 l0 5.4 -3.8 0 c-3.7 0 -3.9 -0.2 -5.6 -4.9z" />
  </g>
  <g
     id="g362"
     fill="#1f0f0d">
    <path
       id="path346"
       d="M20.5 151.8 c1.7 -6.2 6.2 -13.2 9.5 -14.9 4.3 -2.3 10.1 -2.4 14.6 -0.3 3.3 1.6 7.3 8.1 8.9 14.7 0.6 2.3 0.4 2.7 -1.3 2.7 -1.5 0 -2.5 -1.2 -3.8 -4.6 -1 -2.5 -3.1 -5.9 -4.6 -7.5 -2.5 -2.5 -3.7 -2.9 -8.4 -2.9 -4.5 0 -5.4 0.3 -5.4 1.8 0 0.9 -0.8 3.1 -1.8 4.7 -1 1.7 -2.2 4.2 -2.5 5.8 -0.6 2.1 -1.3 2.7 -3.3 2.7 -2.1 0 -2.4 -0.3 -1.9 -2.2z" />
    <path
       id="path348"
       d="M54.5 151 c-0.4 -1.6 -0.4 -3.4 0 -4 0.3 -0.5 0.2 -1 -0.3 -1 -1.2 0 -6.2 -9.7 -5.4 -10.4 1.6 -1.6 4.1 -0.4 4.4 2.2 0.5 4.8 2.7 5 58.1 4.8 27.9 0 50.7 0.1 50.7 0.5 0 0.3 -0.4 0.9 -1 1.5 -0.6 0.6 -0.3 1.4 1 2.2 1.8 1.1 2 1 2 -1.7 l0 -3 7 0.6 c6.1 0.5 7 0.4 7 -1.1 0 -0.9 0.5 -1.6 1 -1.6 0.6 0 1 -0.7 1 -1.5 0 -0.8 0.6 -1.5 1.3 -1.5 0.6 0 1.8 -1.3 2.4 -2.8 0.8 -1.6 2.1 -2.8 3.2 -2.8 2.2 0 2.2 1.7 0 4.3 -3.3 3.7 -3.1 4.7 0.1 1.3 1.9 -1.9 3.3 -3.9 3.2 -4.3 -0.1 -0.5 0.2 -0.6 0.7 -0.3 0.5 0.3 2 -0.7 3.4 -2.4 2 -2.4 2.6 -2.6 3.1 -1.4 0.3 0.9 1.3 1.4 2.1 1 0.8 -0.3 1.7 0 2.1 0.6 0.5 0.7 0.2 0.8 -0.6 0.3 -0.9 -0.6 -1.1 -0.4 -0.6 0.4 0.5 0.7 1.5 1 2.3 0.7 0.8 -0.3 1.1 -0.1 0.8 0.4 -0.6 0.9 0.8 1.4 2.8 1.1 0.5 -0.1 0.6 0.3 0.2 0.9 -0.6 0.9 0.8 1.4 2.8 1.1 0.5 -0.1 0.6 0.3 0.2 0.9 -0.6 0.9 8 5.5 9.7 5.2 0.4 -0.1 0.5 0.5 0.2 1.3 -0.3 0.7 0 2.2 0.6 3.2 1.1 1.7 1.1 1.7 0.6 -0.1 -0.6 -1.6 -0.4 -1.7 0.9 -0.6 0.8 0.7 1.5 0.9 1.5 0.4 0 -0.4 0.5 -0.3 1.1 0.3 0.8 0.8 0.8 2.1 -0.1 4.7 -1.1 3.3 -1.5 3.6 -5.1 3.6 l-3.9 0 0 -4.3 c0 -4.7 -1.3 -6.7 -4.3 -6.7 -1 0 -2.1 -0.9 -2.4 -2 -0.3 -1.1 -1.2 -2 -2.1 -2 -0.8 0 -3.7 -1.3 -6.3 -3 -4.6 -2.8 -4.9 -2.8 -4.9 -1 0 1.1 -0.4 2 -1 2 -0.5 0 -2.1 1.2 -3.6 2.7 -2 2 -2.7 3.9 -3.1 8.5 l-0.6 5.8 -3.7 0 c-2.9 0 -3.9 -0.4 -4.3 -2 -0.5 -2 -1.4 -2 -60.6 -2 -59.4 0 -60.1 0 -60.1 2 0 3.1 -2.8 2.3 -3.5 -1z m128.7 -6.3 c0.4 -3.8 0.4 -3.8 -1.2 -1.6 -1.4 1.7 -1.5 2.6 -0.6 4.5 1.2 2.6 1.3 2.5 1.8 -2.9z" />
    <path
       id="path350"
       d="M157 138.1 c-0.7 -1.1 -4 -2.8 -7.2 -3.7 -3.2 -1 -5.8 -2.4 -5.8 -3.1 0 -0.9 -1.5 -1.3 -4.9 -1.3 -2.8 0 -5.3 -0.4 -5.6 -1 -0.9 -1.5 -2.5 -1.2 -2.5 0.4 0 0.7 -1.6 2.4 -3.5 3.7 -1.9 1.3 -3.5 2.7 -3.5 3.2 0 0.4 -1.6 0.7 -3.5 0.7 -2.4 0 -3.5 -0.5 -3.5 -1.5 0 -0.8 -0.9 -2 -2 -2.7 -1.1 -0.7 -2 -2.4 -2 -3.7 l0 -2.4 2.3 2 c1.2 1.1 2.9 2.3 3.7 2.7 0.8 0.4 0.5 -0.1 -0.7 -1.2 -1.3 -1.1 -2.3 -2.7 -2.3 -3.5 0 -1.2 -1.2 -1.1 -7.7 0.6 -4.3 1.1 -7.9 2.4 -8.1 2.9 -0.2 0.4 -1.9 0.8 -3.7 0.8 -5.4 0 -8 -3.9 -7.3 -11.1 0.2 -2.6 0.8 -3.5 2.5 -3.7 1.8 -0.3 2.2 0 1.7 1.5 -0.5 1.4 -0.4 1.5 0.4 0.4 1.5 -2.1 4.5 -0.6 3.7 1.9 -0.4 1.2 -0.2 2 0.5 2 0.7 0 1 0.8 0.7 2 -0.3 1.1 -0.1 2 0.4 2 0.5 0 0.9 -1.1 0.9 -2.4 0 -2.9 0.9 -3.2 10.9 -4.1 6.4 -0.6 7.3 -0.5 6.8 0.8 -0.7 1.7 4.2 3.1 5.8 1.6 0.5 -0.5 0.1 -0.9 -1.3 -0.9 -1.2 0 -2.2 -0.4 -2.2 -1 0 -0.5 1.6 -1 3.6 -1 3.1 0 3.6 0.3 3.1 2 -0.5 2.1 0.7 2.8 1.8 1 0.3 -0.5 2.4 -1 4.6 -1 3.6 0 3.9 -0.2 3.9 -2.7 0 -4.3 1.3 -5.5 6.4 -6 l4.6 -0.6 0 3.7 c0 3.7 -1.5 4.9 -2.3 1.9 -0.3 -1.3 -0.5 -1.1 -0.7 0.7 -0.5 4.6 -0.8 6.5 -1.5 8.5 -0.3 1.1 0.1 0.8 1 -0.7 1.7 -3 3.5 -3.7 3.5 -1.5 0 1.1 5.8 3.7 8.2 3.7 1 0 -3.6 -22.6 -4.9 -23.8 -1.5 -1.6 -1.8 -8.2 -0.2 -8.2 1.2 0 5.9 10.2 5.9 12.8 0 1.5 0.2 1.5 1.1 0.2 0.8 -1.1 0.9 -0.7 0.4 1.6 -0.3 1.7 0.1 6.2 0.9 10 0.8 3.8 1.7 9.1 1.9 11.7 l0.5 4.8 -2.7 -2.3 -2.6 -2.3 2.1 2.5 c3.4 4 3.7 5 1.7 5 -1 0 -2.5 -0.9 -3.3 -1.9z" />
    <path
       id="path352"
       d="M163.7 135.3 c-0.4 -2.8 -0.5 -7 -0.1 -9.2 0.5 -3.4 0.4 -4.1 -1 -4.1 -1.1 0 -1.6 -0.9 -1.6 -2.6 0 -1.4 0.4 -2.3 1 -1.9 0.6 0.3 1 0.1 1 -0.4 0 -0.6 0.7 -1.1 1.5 -1.1 0.8 0 1.5 -0.6 1.5 -1.2 0 -0.8 0.3 -0.9 0.8 -0.3 0.4 0.6 3.2 3 6.2 5.5 3 2.4 6.5 5.5 7.8 6.8 l2.2 2.3 -3.7 -0.3 c-3.1 -0.2 -3.9 -0.7 -4.1 -2.5 -0.3 -1.7 -1 -2.3 -2.8 -2.3 -1.3 0 -2.4 -0.3 -2.4 -0.7 0 -0.5 -1.2 -1.3 -2.6 -2 -2.2 -1 -2.5 -1 -2 0.3 0.3 0.9 0.6 2.2 0.6 3 0 0.8 0.9 1.4 2 1.4 1.6 0 2 0.7 2 3.5 0 2.4 -0.5 3.5 -1.5 3.5 -0.8 0 -1.5 0.9 -1.5 2 0 1.1 -0.4 2 -0.9 2 -0.5 0 -1.1 0.8 -1.3 1.8 -0.2 0.9 -0.7 -0.6 -1.1 -3.5z" />
    <path
       id="path354"
       d="M73 137.5 c0 -0.8 -0.7 -1.5 -1.5 -1.5 -0.9 0 -1.5 -0.9 -1.5 -2.5 0 -1.8 -0.5 -2.5 -2 -2.5 -1.3 0 -2 -0.7 -2 -2 0 -1.5 -0.7 -2 -2.7 -2 l-2.8 -0.1 3 -2.6 c1.7 -1.5 2.9 -3.1 2.7 -3.6 -0.1 -0.4 0.2 -0.6 0.8 -0.2 0.6 0.4 2.1 0 3.3 -0.7 5.1 -3.3 5.4 -3 4.5 2.5 -0.5 2.9 -0.9 7.8 -0.9 11 0 3.1 -0.1 5.7 -0.4 5.7 -0.3 0 -0.5 -0.7 -0.5 -1.5z" />
    <path
       id="path356"
       d="M75.2 134.4 c-0.3 -6.4 2.4 -23.8 4.4 -28.2 0.9 -2 2 -4.6 2.4 -5.7 0.4 -1.1 1.9 -4.9 3.4 -8.4 1.4 -3.5 2.3 -6.7 2 -7.2 -0.3 -0.5 0 -0.9 0.6 -0.9 0.7 0 0.9 -0.7 0.6 -1.6 -0.3 -0.8 -0.2 -1.2 0.3 -0.9 0.5 0.3 1.2 -0.3 1.5 -1.2 0.3 -1 2.6 -2.7 5 -3.7 2.5 -1.1 4.3 -2.2 4.1 -2.5 -0.2 -0.4 0.7 -0.7 1.8 -0.8 1.2 -0.1 3.4 -0.4 5 -0.8 2.3 -0.6 2.7 -0.4 2.7 1.2 0 1.5 -1.2 2.5 -4.3 3.7 -2.3 0.9 -4.6 1.6 -5.1 1.6 -1.4 0 -8.6 7.7 -8.6 9.2 0 2.3 -4.1 11.8 -5.1 11.8 -0.5 0 -0.9 1.1 -0.9 2.5 0 1.4 -0.4 2.5 -0.8 2.5 -0.4 0 -1.4 2.7 -2.1 6 -0.8 3.3 -1.7 6 -2.1 6 -1.2 0 -1.9 5 -1.3 8.7 0.5 3 0.9 3.3 3.9 3.3 3.2 0 3.4 0.2 3.4 3.5 0 3.2 -0.2 3.5 -3 3.5 -2 0 -3 0.5 -3 1.5 0 0.9 -0.9 1.5 -2.3 1.5 -2.1 0 -2.4 -0.5 -2.5 -4.6z" />
    <path
       id="path358"
       d="M98.7 118 c-0.9 -1.1 -2.4 -2 -3.2 -2 -0.8 0 -1.5 -0.7 -1.5 -1.5 0 -1 1.1 -1.5 3.5 -1.5 3.3 0 3.5 0.2 3.5 3.5 0 1.9 -0.1 3.5 -0.3 3.5 -0.1 0 -1 -0.9 -2 -2z" />
    <path
       id="path360"
       d="M147 92 c0 -2.4 -0.4 -3 -2.2 -3 -2.5 -0.1 -6.8 -3.2 -6.8 -4.9 0 -0.6 -0.7 -1.1 -1.5 -1.1 -1 0 -1.5 -1 -1.5 -3 0 -2.8 -0.3 -3 -3.5 -3 -2.3 0 -3.5 -0.5 -3.5 -1.4 0 -1.4 -8.4 -3.5 -14.4 -3.7 l-3.1 0 4 -2 c3.1 -1.4 3.5 -1.8 1.5 -1.6 -1.6 0.1 -2.4 -0.3 -2.2 -1.1 1.3 -6.3 2.3 -9.2 3.3 -9.2 0.5 0 0.9 -0.5 0.9 -1 0 -0.6 -0.5 -0.9 -1.2 -0.8 -1.9 0.5 -4.2 -5.3 -4.4 -11 -0.2 -6.5 0.1 -8 2.9 -11.4 1.8 -2.2 3.5 -2.8 9.2 -3.6 6.2 -0.9 7.5 -0.8 11.3 1 2.4 1.1 4.6 2.8 5 3.7 0.3 0.9 1 1.9 1.4 2.2 1.1 0.7 1.9 15.1 0.8 14.4 -0.4 -0.3 -1.1 0.2 -1.4 1.1 -0.3 0.8 -0.2 1.2 0.4 0.9 0.6 -0.3 1 -0.4 1 -0.1 0 0.3 -2 1.9 -4.5 3.6 -4.1 2.8 -4.9 3 -7.7 2.1 -4.2 -1.5 -5.8 -1.4 -5.8 0.3 0 0.8 -0.4 1.6 -0.8 1.8 -1.5 0.5 -2.4 7 -1 6.6 0.7 -0.3 2.4 0.6 3.8 1.8 1.4 1.2 4.3 3.8 6.5 5.8 4.1 3.6 6.2 4.6 4.9 2.4 -0.5 -1 -0.3 -1 0.7 0 0.8 0.7 1.4 1.6 1.4 2 0 0.4 2.4 3.2 5.3 6.2 2.8 3 5.2 6 5.2 6.8 0 0.7 0.4 1.1 0.9 0.7 0.5 -0.3 1.2 -0.2 1.5 0.3 0.2 0.4 -1.1 0.9 -3 1 -3.2 0.2 -3.4 0.1 -3.4 -2.8z m-11.8 -38.7 c0.9 -1 2.3 -3.3 3.2 -5 1.5 -2.9 1.5 -3.6 0.2 -6.5 -2.9 -6.4 -5.2 -8.1 -10.4 -7.9 -2.5 0.1 -6.1 0.7 -7.9 1.3 -2.8 1 -3.3 1.8 -3.9 5.5 -0.7 4.5 0.5 11.5 1.4 7.9 0.8 -3.8 3.7 -5.8 7.8 -5.4 3.7 0.3 3.9 0.5 4.2 4 0.2 2 -0.2 4.6 -0.8 5.8 -1 1.8 -0.8 2 1.8 2 1.6 0 3.6 -0.8 4.4 -1.7z" />
  </g>
  <g
     id="g376"
     fill="#8f191c">
    <path
       id="path364"
       d="M21 153.6 c0 -3.3 5.8 -15 8.3 -16.5 2.9 -1.8 13.1 -1.6 16.1 0.4 2.3 1.5 6.3 8.6 8 14.3 0.7 2 0.4 2.2 -2.6 2.2 -3.1 0 -3.5 -0.3 -4.5 -4.3 -0.7 -2.3 -2.1 -5.3 -3.2 -6.6 -1.2 -1.3 -2.1 -2.8 -2.1 -3.3 0 -0.4 -1.5 -0.8 -3.3 -0.8 -4.1 0 -6.9 2.9 -9.4 9.9 -1.5 4.5 -2.1 5.1 -4.5 5.1 -1.6 0 -2.8 -0.2 -2.8 -0.4z" />
    <path
       id="path366"
       d="M55.8 153.4 c-0.5 -0.4 -0.8 -2.1 -0.8 -3.8 0.1 -2.6 0.2 -2.8 1.1 -1.3 1.1 1.9 0.8 6.3 -0.3 5.1z" />
    <path
       id="path368"
       d="M180.6 150.8 c-0.8 -4 0 -4.9 1.3 -1.4 1.5 3.7 2.5 3.2 1.8 -0.9 -0.8 -4.9 1.3 -9.1 7.2 -14.9 l5 -4.8 6 3.7 c3.5 2.1 6.6 3.3 7.3 2.9 0.7 -0.4 1 -0.3 0.5 0.1 -1 1.1 2.2 4.5 4.3 4.5 3.1 0 5.3 3.6 4.7 7.5 -0.4 2.6 -0.2 3.5 0.6 3.2 0.7 -0.2 1.3 -1.3 1.5 -2.5 0.5 -3.5 3.2 -1.5 3.2 2.4 l0 3.4 -7 0 c-7 0 -7 0 -7 -2.7 0 -1.6 0.7 -3.6 1.5 -4.6 1.8 -2.4 0.9 -4.7 -1.9 -4.7 -1.2 0 -3.2 -1 -4.6 -2.3 -1.4 -1.2 -3.8 -2.8 -5.3 -3.5 -2.5 -1.1 -3.1 -0.9 -6.3 2.1 -4.7 4.2 -6.2 7.4 -5.6 12 0.4 3.7 0.4 3.7 -3.1 3.7 -3.1 0 -3.5 -0.3 -4.1 -3.2z" />
    <path
       id="path370"
       d="M52.5 143.5 c-0.8 -1.4 -2.2 -3.6 -3 -4.9 -0.8 -1.4 -1.1 -2.7 -0.6 -3.1 1 -0.6 4.4 4.5 5.6 8.3 0.9 2.9 -0.1 2.8 -2 -0.3z" />
    <path
       id="path372"
       d="M180 143.8 c0 -2.5 2.7 -8.2 4.7 -9.9 5.4 -4.7 5.1 -2.5 -0.9 6 -2.1 3 -3.8 4.7 -3.8 3.9z" />
    <path
       id="path374"
       d="M121 60 c0 -0.5 -0.9 -1 -2 -1 -1.4 0 -1.8 -0.5 -1.3 -1.7 0.4 -1.1 0.3 -1.4 -0.6 -0.9 -1.4 0.9 -4.1 -5 -4.1 -8.9 0 -1.8 0.5 -2.5 2 -2.5 1.1 0 2 0.6 2 1.2 0 0.7 0.7 0.2 1.6 -1 1.4 -2 2.3 -2.3 6.7 -2 l5.2 0.3 0.3 3.8 c0.2 2.1 -0.2 4.5 -0.8 5.3 -2 2.3 1.7 3 4.1 0.8 4.1 -3.7 5.2 -7.2 3.9 -12 -0.7 -2.4 -1.7 -4.4 -2.3 -4.4 -0.6 0 -1.8 -0.7 -2.8 -1.6 -2.8 -2.5 -10.4 -1 -14.1 2.7 -1.6 1.6 -3.6 2.9 -4.4 2.9 -2.3 0 -1.6 -4 1.4 -6.9 2.3 -2.3 3.9 -2.9 9.8 -3.5 7 -0.7 10.3 -0.2 11.6 1.8 0.4 0.6 1.3 1.1 2 1.1 0.7 0 1.4 0.6 1.4 1.3 0.1 0.6 0.2 1.7 0.3 2.3 0 0.5 0.6 0.7 1.3 0.3 0.6 -0.4 0.8 -0.3 0.4 0.4 -0.3 0.6 -0.2 2.8 0.2 5 0.7 3.1 0.5 4.6 -0.9 7.3 -2.3 4.3 -2.4 5.5 -0.1 3.8 1.5 -1.3 1.6 -1.2 0.3 0.4 -0.8 0.9 -1.6 1.5 -1.9 1.2 -0.3 -0.3 -1.8 0.7 -3.4 2.2 -2.5 2.3 -3.1 2.6 -4.8 1.5 -2.8 -1.7 -7 -1.5 -7 0.3 0 0.8 -0.9 1.5 -2 1.5 -1.1 0 -2 -0.4 -2 -1z m5.1 -13.3 c-0.8 -0.8 -1.4 -0.8 -2.3 0.2 -1.1 1 -0.9 1.1 0.6 0.5 1.6 -0.6 1.7 -0.3 1.2 1.7 -0.6 2.1 -0.6 2.2 0.5 0.6 0.8 -1.4 0.8 -2.2 0 -3z" />
  </g>
  <g
     id="g414"
     fill="#484e56">
    <path
       id="path378"
       d="M55 148 c0 -0.7 16.7 -1 48 -1 31.3 0 48 0.3 48 1 0 0.7 -16.7 1 -48 1 -31.3 0 -48 -0.3 -48 -1z" />
    <path
       id="path380"
       d="M161.6 148.1 c-0.3 -0.5 3.9 -0.9 9.3 -1 6 -0.1 10.2 0.2 10.6 0.9 0.4 0.7 -2.7 1 -9.4 1 -5.5 0 -10.2 -0.4 -10.5 -0.9z" />
    <path
       id="path382"
       d="M221 147 c0 -0.5 0.7 -1 1.5 -1 0.8 0 1.5 0.5 1.5 1 0 0.6 -0.7 1 -1.5 1 -0.8 0 -1.5 -0.4 -1.5 -1z" />
    <path
       id="path384"
       d="M52.4 143.4 c-0.7 -1.3 -2.1 -3.5 -2.9 -4.9 -1.4 -2.3 -1.3 -2.5 2.5 -5.6 2.2 -1.8 3.7 -3.7 3.3 -4.3 -0.3 -0.6 -0.3 -0.8 0.2 -0.4 1.1 1.1 4.7 -1.1 3.9 -2.4 -0.4 -0.7 -0.3 -0.8 0.4 -0.4 0.7 0.4 2.9 -0.5 4.9 -1.9 2.1 -1.4 4.5 -2.5 5.4 -2.5 0.9 0 2 -0.8 2.3 -1.7 0.5 -1.2 1 -1.3 1.8 -0.5 0.7 0.7 0.7 2.8 0.1 6.9 -0.6 3.2 -0.7 8.1 -0.3 10.8 0.4 2.8 0.8 4.1 0.9 2.9 0 -1.1 0.7 -2.6 1.4 -3.3 1 -1.1 0.9 -1.2 -0.1 -0.6 -1.1 0.6 -1.2 -0.7 -0.7 -6.6 1 -11.4 3.4 -21.9 5.1 -21.9 0.8 0 1.4 1 1.4 2.4 0 3.6 -2.3 13 -3.3 13.7 -0.5 0.4 -0.6 2 -0.2 3.7 0.6 2.9 0.7 3 3.3 1.6 1.5 -0.8 4.2 -1.4 6 -1.4 3.2 0 3.3 -0.1 2.6 -3.4 -0.3 -1.9 -0.3 -4.8 0.1 -6.5 0.5 -2.5 1.2 -3.1 3.3 -3.1 5.2 0 7.3 1.1 7.9 4.1 0.4 2.4 1.1 2.9 3.4 2.9 3.2 0 3.9 1.6 1.2 2.3 -1.7 0.4 -1.7 0.5 0 0.6 0.9 0 1.7 0.9 1.7 1.9 0 2.1 -4.2 3.9 -11.3 4.8 -2.6 0.4 -4.7 1.2 -4.7 1.8 0 0.7 -2.9 2.3 -6.5 3.7 -4.6 1.7 -6.5 2.9 -6.5 4.2 0 1.6 2.4 1.7 36 1.7 30.1 0 36 0.2 36 1.4 0 0.8 -1.1 1.7 -2.6 2 -1.4 0.4 -23.2 0.6 -48.5 0.5 l-46 -0.1 -1.5 -2.4z m17.6 -3.5 c0 -1.1 -0.9 -3.2 -2 -4.6 -1.1 -1.4 -2 -3.4 -2 -4.4 0 -2.6 -0.6 -2.4 -6.6 2.2 -4.9 3.7 -5.2 4.2 -4.2 6.5 1 2.2 1.7 2.4 8 2.4 6.2 0 6.8 -0.2 6.8 -2.1z m25 -15.4 c-1.9 -3.8 -1.6 -7.5 0.6 -7.5 1.9 0 3.7 3.8 3.1 6.6 -0.2 1.5 0.1 2.4 0.8 2.4 0.9 0 1 -1.1 0.5 -3.8 -0.9 -5 -1.7 -6.2 -4.1 -6.2 -3.1 0 -4.4 4.7 -2.5 8.7 0.9 1.8 2 3.3 2.5 3.3 0.5 0 0.1 -1.6 -0.9 -3.5z" />
    <path
       id="path386"
       d="M164.6 145.1 c-0.3 -0.5 -0.7 -5.9 -0.8 -11.9 -0.1 -8.2 -0.5 -11.2 -1.5 -11.6 -1.8 -0.7 -1.6 -4.3 0.3 -5 3.7 -1.4 6.4 0 16.8 9.1 2.6 2.4 5.2 4 5.7 3.7 0.5 -0.3 0.8 0 0.7 0.8 -0.2 0.7 0.5 1.2 1.4 1.2 2.1 -0.2 1.5 1.3 -3.6 8.9 l-3.9 5.7 -7.3 0 c-4 0 -7.5 -0.4 -7.8 -0.9z m14.7 -7 l2.7 -4 -2.5 -1.9 c-1.4 -1.1 -2.5 -3 -2.5 -4.2 0 -1.6 -0.5 -2.1 -2.2 -1.8 -1.7 0.2 -2.4 1.4 -3.4 5.6 -0.6 3 -1.7 5.9 -2.3 6.5 -2.3 2.3 -1.2 3.7 3.3 3.7 3.9 0 4.6 -0.4 6.9 -3.9z" />
    <path
       id="path388"
       d="M184 145 c0 -2.2 2.9 -6.6 6.4 -9.8 3.2 -2.9 3.6 -3 3.6 -1.2 0 1.1 -0.6 2 -1.2 2 -0.7 0 -2.8 2.3 -4.7 5 -3.5 5.2 -4.1 5.7 -4.1 4z" />
    <path
       id="path390"
       d="M206 138 c0 -0.5 -0.7 -1 -1.5 -1 -0.8 0 -1.5 -0.4 -1.5 -1 0 -0.5 -0.7 -1 -1.4 -1 -0.8 0 -2.7 -1.1 -4.2 -2.5 -3.8 -3.5 -1.5 -3.1 5.5 1 6.8 4 8.2 5.5 5.2 5.5 -1.2 0 -2.1 -0.4 -2.1 -1z" />
    <path
       id="path392"
       d="M118 136 c0 -0.5 -0.7 -1 -1.5 -1 -0.8 0 -1.5 -0.9 -1.5 -2 0 -1.5 -0.7 -2 -2.6 -2 -2.3 0 -2.5 -0.3 -2.2 -3.7 0.2 -3.1 0.7 -3.9 2.6 -4.1 1.3 -0.2 1.9 -0.8 1.6 -1.4 -0.5 -0.7 0.2 -0.9 2.2 -0.4 1.6 0.4 3.9 1 5.2 1.3 1.3 0.3 2.2 0.1 2.2 -0.6 0 -0.6 -1.6 -1.1 -3.5 -1.1 -1.9 0 -3.5 -0.4 -3.5 -1 0 -0.6 2.6 -1 5.9 -1 l6 0 0.7 5.7 c0.5 4 0.3 5.8 -0.5 6.1 -0.6 0.2 -1.1 0.9 -1.1 1.6 0 2 -3.9 4.6 -7 4.6 -1.7 0 -3 -0.4 -3 -1z m10.5 -10.1 c-1 -1.6 -7.2 -2.1 -11.5 -0.9 l-4.4 1.2 4 3.7 3.9 3.7 4.2 -3.4 c2.4 -1.9 4 -3.8 3.8 -4.3z" />
    <path
       id="path394"
       d="M118.3 129.5 c-1.3 -1.2 -2.3 -2.5 -2.3 -2.8 0 -0.3 2.5 -0.6 5.5 -0.6 3 0 5.5 0.3 5.5 0.5 0 0.7 -5.4 5.4 -6 5.3 -0.3 -0.1 -1.5 -1.1 -2.7 -2.4z" />
    <path
       id="path396"
       d="M144 133.3 c-4.1 -1.5 -8.7 -3.1 -10.2 -3.6 -2 -0.7 -2.8 -1.6 -2.8 -3.3 0 -1.8 0.4 -2.2 1.8 -1.7 1.4 0.5 1.3 0.3 -0.3 -1 -1.9 -1.6 -1.9 -1.6 1.1 -1.7 2.8 0 3.1 -0.4 4.3 -5.1 l1.3 -5 4.2 0.3 4.1 0.3 0.3 6 c0.4 6.9 1.1 8.1 6.3 9.7 2.7 0.8 3.9 1.7 3.9 3 0 1.5 -0.3 1.7 -1.9 0.8 -1.1 -0.5 -2.6 -1 -3.3 -1 -0.7 0.1 0.2 0.7 2 1.5 1.7 0.8 3.2 1.9 3.2 2.5 0 1.7 -6.1 1 -14 -1.7z m1.1 -8 c1.3 -3.2 1.4 -8.2 0.2 -9.4 -0.4 -0.4 -0.8 1.3 -0.8 3.9 -0.1 2.6 -0.4 5.5 -0.9 6.5 -0.4 0.9 -0.5 1.7 -0.2 1.7 0.4 0 1.1 -1.2 1.7 -2.7z m-4.2 1.3 c-0.2 -0.2 -1.7 -0.6 -3.4 -1 -2.2 -0.5 -2.6 -0.4 -1.5 0.4 1.4 0.9 5.9 1.5 4.9 0.6z" />
    <path
       id="path398"
       d="M158.5 124 c-0.4 -2.3 -0.5 -4.3 -0.2 -4.6 0.2 -0.3 0.7 1.4 1.1 3.7 0.4 2.3 0.5 4.4 0.2 4.6 -0.2 0.2 -0.7 -1.4 -1.1 -3.7z" />
    <path
       id="path400"
       d="M155.6 114.8 c-0.3 -1.3 -0.6 -3.7 -0.6 -5.5 0 -1.7 -0.3 -3.3 -0.7 -3.5 -1.7 -0.7 -5.4 -10.6 -5.1 -13.4 0.2 -2.4 0.9 -1.3 4 6.6 3.9 10 5.7 18 4 18 -0.5 0 -1.2 -1 -1.6 -2.2z" />
    <path
       id="path404"
       d="M87.8 86.3 c-0.2 -1 0.7 -2.9 1.9 -4.2 l2.3 -2.4 0 4.1 c0 3.4 -0.3 4.2 -1.9 4.2 -1 0 -2 -0.8 -2.3 -1.7z" />
    <path
       id="path406"
       d="M136.3 82.3 c-0.7 -1.5 -1.3 -3.4 -1.3 -4.2 0 -1.2 0.3 -1.1 1.8 0.2 2.4 2.2 3.8 2.2 2.1 0 -1.3 -1.6 -1.2 -1.7 0.3 -0.4 1 0.7 1.5 1.7 1.3 2.2 -0.3 0.4 0.5 1.7 1.7 2.8 l2.2 2.1 -3.5 0 c-2.7 0 -3.6 -0.6 -4.6 -2.7z" />
    <path
       id="path408"
       d="M106 73.6 c0 -0.8 2.7 -2.1 6.8 -3.2 5.7 -1.6 6.2 -1.9 3.6 -2.2 -2.6 -0.3 -3.1 -0.7 -2.7 -2.3 0.4 -1.2 1.5 -1.9 3.2 -2 2.4 -0.1 2.5 -0.1 0.4 -0.7 l-2.3 -0.7 2.5 -4.9 c2.6 -5.2 2.7 -7.8 0.1 -2.9 -0.8 1.5 -1.5 2.3 -1.6 1.6 0 -0.6 -0.3 -1.8 -0.6 -2.7 -0.4 -1.1 -0.1 -1.6 1 -1.6 1 0 1.6 -0.9 1.6 -2.5 0 -1.8 0.5 -2.5 2 -2.5 1.8 0 1.9 0.3 0.9 2.3 l-1.2 2.2 2.5 -2.3 c2.9 -2.6 4.1 -2 2.7 1.5 -0.5 1.3 -0.9 3.2 -0.8 4.1 0 0.9 0.6 0.3 1.2 -1.5 1.9 -5 2.7 -5 2.7 -0.1 0 4.4 -0.1 4.5 -2.7 4.2 -1.6 -0.2 -2.2 -0.1 -1.5 0.2 1.3 0.6 1.7 3.4 0.4 3.4 -1.3 0 -3.1 6.6 -2.2 8 0.6 1 1 0.9 1.6 -0.1 0.7 -1.1 1.8 -0.6 4.9 2.3 l4 3.8 -3.7 0 c-2.7 0 -3.8 -0.4 -3.8 -1.5 0 -1.1 -1.1 -1.5 -3.7 -1.5 -2.1 0 -4.8 -0.3 -6 -0.6 -1.9 -0.5 -2.3 -0.2 -2.3 1.5 0 1.7 -0.6 2.1 -3.5 2.1 -2.3 0 -3.5 -0.5 -3.5 -1.4z" />
    <path
       id="path410"
       d="M137 54.3 c0.1 -2 3.7 -6.9 4.6 -6 0.7 0.6 -2.2 6.3 -3.6 7.2 -0.5 0.3 -1 -0.2 -1 -1.2z" />
    <path
       id="path412"
       d="M139 40 c0 -1.3 -3.7 -5 -5 -5 -0.5 0 -1 -0.9 -1 -1.9 0 -1.3 0.6 -1.9 1.9 -1.8 1.1 0 1.9 0.6 1.8 1.2 -0.1 0.5 0.7 1 1.8 1 1.1 0.1 1.9 0.6 1.8 1.3 -0.2 0.6 0.2 2.3 0.7 3.7 0.7 2 0.6 2.5 -0.5 2.5 -0.8 0 -1.5 -0.4 -1.5 -1z" />
  </g>
  <g
     id="g436"
     fill="#ad1d2b">
    <path
       id="path416"
       d="M24 151.7 c0 -3.7 3.5 -12.6 5.6 -14.2 5 -3.7 7.2 -0.2 3 4.8 -1.3 1.5 -2.9 4.7 -3.6 7.2 -0.9 3.3 -1.8 4.5 -3.1 4.5 -1.3 0 -1.9 -0.7 -1.9 -2.3z" />
    <path
       id="path418"
       d="M181.1 150.8 c0 -2.9 0.1 -3 0.9 -1.2 1.4 3.6 3 3.9 2.4 0.4 -0.6 -2.6 -0.4 -3 1.5 -3 1.7 0 2.1 0.6 2.1 3.5 0 3.3 -0.2 3.5 -3.5 3.5 -3.3 0 -3.5 -0.2 -3.4 -3.2z" />
    <path
       id="path420"
       d="M211 149.5 c0 -2.7 1.1 -6.7 2.6 -9.3 0 -0.1 0.9 0 1.8 0.4 2.2 0.8 2 3.9 -0.6 8.5 -2.7 4.8 -3.8 4.9 -3.8 0.4z" />
    <path
       id="path422"
       d="M44.5 145.5 c-1.1 -3 -2.5 -5.5 -3.2 -5.5 -0.7 0 -1.3 -0.9 -1.3 -2 0 -2.5 2.5 -2.6 4.9 -0.2 1.9 1.8 5.1 9.2 5.1 11.7 0 0.8 -0.8 1.5 -1.8 1.5 -1.4 0 -2.4 -1.5 -3.7 -5.5z" />
    <path
       id="path424"
       d="M185 141.9 c0 -1.2 10.1 -11.9 11.2 -11.9 1.4 0 12.8 7.1 12.8 8 0 1.6 -5.6 1.1 -9 -0.7 -2.5 -1.4 -3.4 -1.5 -3.7 -0.5 -0.3 0.6 -1.8 1.2 -3.4 1.2 -2.4 0 -2.9 0.4 -2.9 2.5 0 2 -0.5 2.5 -2.5 2.5 -1.4 0 -2.5 -0.5 -2.5 -1.1z" />
    <path
       id="path426"
       d="M117.8 128.9 c-2.4 -1.3 -2.3 -2.9 0.2 -2.9 1.3 0 2 0.7 2 2 0 2.3 0.1 2.3 -2.2 0.9z" />
    <path
       id="path428"
       d="M113 124.5 c0 -1 1.1 -1.5 3.6 -1.5 2.2 0 3.3 0.4 2.9 1.1 -0.4 0.6 -0.9 0.8 -1.2 0.5 -0.3 -0.2 -1.6 -0.1 -2.9 0.4 -1.9 0.7 -2.4 0.6 -2.4 -0.5z" />
    <path
       id="path430"
       d="M117 59.5 c0 -0.4 0.7 -2 1.6 -3.6 0.8 -1.7 1.3 -3.3 1.1 -3.6 -0.3 -0.3 -1.2 0.7 -1.9 2.1 l-1.4 2.6 -1.1 -3 c-0.8 -2.1 -0.8 -2.8 0 -2.3 0.6 0.3 0.3 -0.4 -0.6 -1.8 -2.3 -3.2 -2.2 -5.9 0.3 -5.9 1.1 0 2 0.5 2 1 0 0.6 0.9 0.1 2 -1 2.3 -2.3 9.8 -2.8 11.8 -0.8 1.5 1.5 1.6 8.4 0.2 9.3 -1.9 1.2 0.1 2.5 3.8 2.5 l3.6 0 -2 2 c-1.8 1.9 -2.5 2 -7.1 1 l-5.1 -1.1 1 -3.2 c0.6 -1.8 1.5 -3.7 2 -4.4 0.5 -0.7 0.7 -1.7 0.3 -2.3 -1.1 -1.7 -4.3 -1.1 -5.9 1.2 -2.2 3 -1.1 3.6 1.3 0.7 2.3 -2.8 3.8 -2 2.1 1.1 -0.6 1.1 -1.2 3.9 -1.3 6 -0.1 3.9 -1.9 5.5 -3 2.8 -0.4 -1 -0.6 -1 -0.6 0 -0.1 1.1 -3.1 1.8 -3.1 0.7z" />
    <path
       id="path432"
       d="M139 44.2 c0 -2 -1.1 -3.7 -4 -6.2 -4.2 -3.6 -5.3 -7 -2.2 -7 2.9 0.1 7 4.3 8.7 8.9 2 5.7 1.9 7.1 -0.5 7.1 -1.5 0 -2 -0.7 -2 -2.8z" />
    <path
       id="path434"
       d="M113 40.1 c0 -3 3.8 -7 7.8 -8.1 5.4 -1.5 7.2 -1.3 7.2 0.9 0 1.3 -1 2.1 -3.4 2.5 -2.1 0.4 -4.5 1.9 -6 3.6 -2.8 3.4 -5.6 3.9 -5.6 1.1z" />
  </g>
  <g
     id="g476"
     fill="#943e26">
    <path
       id="path438"
       d="M55.7 153.3 c-0.4 -0.3 -0.7 -1.9 -0.7 -3.5 l0 -2.8 63 0 63.1 0 0.9 2.4 c1.6 4.4 3.1 4.1 2.4 -0.6 l-0.6 -4.3 1.6 2.9 c2.9 5.1 2.2 6.6 -2.9 6.6 -3.2 0 -4.5 -0.4 -4.5 -1.4 0 -1.2 -9.3 -1.4 -59.5 -1.5 -53 -0.2 -59.5 0 -59.5 1.4 0 1.5 -2.1 2.1 -3.3 0.8z" />
    <path
       id="path440"
       d="M219.3 152.2 c1 -1 1.7 -2.8 1.7 -4 0 -1.6 0.6 -2.2 2.1 -2.2 1.9 0 2.1 0.4 1.5 3.1 -0.3 1.7 -0.6 3.5 -0.6 4 0 0.5 -1.4 0.9 -3.2 0.9 -2.9 0 -3 -0.1 -1.5 -1.8z" />
    <path
       id="path442"
       d="M58.2 144.3 c3.2 -0.2 8.4 -0.2 11.5 0 3.2 0.2 0.6 0.3 -5.7 0.3 -6.3 0 -8.9 -0.1 -5.8 -0.3z" />
    <path
       id="path444"
       d="M97.3 144.3 c12 -0.2 31.4 -0.2 43 0 11.7 0.1 1.9 0.2 -21.8 0.2 -23.6 0 -33.2 -0.1 -21.2 -0.2z" />
    <path
       id="path446"
       d="M168.8 144.3 c2.3 -0.2 5.9 -0.2 8 0 2 0.2 0.1 0.4 -4.3 0.4 -4.4 0 -6.1 -0.2 -3.7 -0.4z" />
    <path
       id="path448"
       d="M76.3 137 c0.3 -1.3 0.1 -1.8 -0.6 -1.3 -0.6 0.4 -0.8 -0.2 -0.4 -1.8 0.4 -1.3 0.7 -2.7 0.7 -3.1 0 -1.2 7 -1 7 0.2 0 0.5 -0.8 1.4 -1.7 2 -1.7 1.1 -1.7 1.1 0 0.6 1.2 -0.4 1.7 0 1.7 1.4 0 1.3 -0.7 2 -2 2 -1.1 0 -2 0.5 -2 1 0 0.6 -0.7 1 -1.6 1 -1.1 0 -1.5 -0.6 -1.1 -2z" />
    <path
       id="path450"
       d="M117 133 c0 -2.4 0.4 -2.5 2.6 -0.3 1.3 1.3 1.9 1.4 2.2 0.5 0.5 -1.7 2.2 -1.5 2.2 0.3 0 1 -1.1 1.5 -3.5 1.5 -2.8 0 -3.5 -0.4 -3.5 -2z" />
    <path
       id="path452"
       d="M146.8 133.3 c-1 -0.2 -1.8 -1.3 -1.8 -2.3 0 -1.7 0.2 -1.7 4.5 -0.1 2.4 0.9 4.7 2 5.1 2.4 0.8 0.8 -5 0.8 -7.8 0z" />
    <path
       id="path454"
       d="M118.8 129.9 c-1.7 -1.8 -1.7 -1.9 1.7 -1.9 3.7 0 4.3 0.8 2.3 2.8 -1.5 1.5 -1.9 1.4 -4 -0.9z" />
    <path
       id="path456"
       d="M148.3 129.5 c-4 -1.7 -4.3 -3.5 -0.5 -3.5 4.7 0 7.2 1.1 7.2 3.1 0 2.3 -2.2 2.4 -6.7 0.4z" />
    <path
       id="path458"
       d="M90 125.5 c0 -4.3 1.8 -4.6 3.3 -0.5 0.6 1.6 1.8 3.1 2.7 3.4 0.8 0.2 -0.2 0.4 -2.2 0.5 -3.7 0.1 -3.8 0 -3.8 -3.4z" />
    <path
       id="path460"
       d="M95 124 c-0.9 -1.6 -0.8 -2 0.5 -2 0.8 0 1.5 0.9 1.5 2 0 1.1 -0.2 2 -0.5 2 -0.2 0 -0.9 -0.9 -1.5 -2z" />
    <path
       id="path462"
       d="M137 117.5 c0 -3.3 0.2 -3.5 3.5 -3.5 l3.5 0 -2 2 c-1.1 1.1 -2 2.7 -2 3.5 0 0.8 -0.7 1.5 -1.5 1.5 -1 0 -1.5 -1.1 -1.5 -3.5z" />
    <path
       id="path464"
       d="M141 120.2 c0 -0.5 0.7 -1.7 1.5 -2.8 1.4 -1.8 1.4 -1.8 1.5 0.9 0 1.7 -0.5 2.7 -1.5 2.7 -0.8 0 -1.5 -0.4 -1.5 -0.8z" />
    <path
       id="path466"
       d="M152.6 108.9 c-1.6 -7.9 0.3 -10.7 3 -4.4 2 4.8 1.8 7.5 -0.5 7.5 -1.3 0 -2 -1 -2.5 -3.1z" />
    <path
       id="path468"
       d="M139 83.6 l0 -3.4 3.5 3.1 c1.9 1.7 3.5 3.2 3.5 3.4 0 0.2 -1.6 0.3 -3.5 0.3 -3.3 0 -3.5 -0.2 -3.5 -3.4z" />
    <path
       id="path470"
       d="M119.7 53.3 c0.9 -2.3 5.1 -6.9 5.7 -6.2 0.2 0.2 -0.1 2.1 -0.7 4.2 -0.9 2.8 -1.7 3.7 -3.4 3.7 -1.7 0 -2.1 -0.4 -1.6 -1.7z" />
    <path
       id="path472"
       d="M117 51.3 c0 -2.7 0.4 -3.3 2 -3.3 1.7 0 1.9 0.3 1.1 1.8 -2.7 4.6 -3.1 4.8 -3.1 1.5z" />
    <path
       id="path474"
       d="M127.4 45.9 c-0.3 -0.6 -1.7 -0.8 -3 -0.5 -1.4 0.4 -2.4 0.2 -2.4 -0.4 0 -0.5 1.6 -1 3.5 -1 2.4 0 3.5 0.5 3.5 1.5 0 1.8 -0.6 1.9 -1.6 0.4z" />
  </g>
  <g
     id="g492"
     fill="#cb2039">
    <path
       id="path478"
       d="M25 151.7 c0 -3.4 3 -11.7 4.3 -11.7 0.6 0 0.7 -0.3 0.4 -0.7 -0.4 -0.3 0.1 -1.2 1.1 -1.9 2.3 -1.8 11.2 -1.7 13.6 0.1 1.1 0.8 1.6 1.5 1 1.5 -0.5 0 -0.4 0.4 0.2 0.8 1.5 1 4.4 8.8 4.4 11.7 l0 2.5 -12.5 0 c-12.4 0 -12.5 0 -12.5 -2.3z" />
    <path
       id="path480"
       d="M181.7 153.3 c-0.4 -0.3 -0.7 -1.1 -0.7 -1.7 0 -0.6 0.5 -0.5 1.2 0.2 2.2 2.2 2.7 1.3 2.2 -3.5 -0.5 -4.2 -0.2 -5.3 2.5 -9 1.7 -2.4 3.6 -4.3 4.2 -4.3 0.6 0 1.9 -1 2.9 -2.2 l1.8 -2.3 6.4 3.3 c16.1 8.6 15.3 7.5 11.8 15.7 l-1.9 4.5 -14.9 0 c-8.2 0 -15.2 -0.3 -15.5 -0.7z" />
    <path
       id="path482"
       d="M181 141.2 c0 -1.2 5.1 -8.4 5.7 -7.9 0.4 0.5 -4.6 8.7 -5.3 8.7 -0.2 0 -0.4 -0.3 -0.4 -0.8z" />
    <path
       id="path484"
       d="M121 129 c0 -2.7 0.3 -3 3.2 -3 l3.2 0 -2.9 3 c-1.6 1.7 -3 3 -3.2 3 -0.2 0 -0.3 -1.3 -0.3 -3z" />
    <path
       id="path486"
       d="M125.5 130 c1 -1.1 2 -2 2.2 -2 0.1 0 0.3 0.9 0.3 2 0 1.4 -0.7 2 -2.2 2 -2 0 -2.1 -0.1 -0.3 -2z" />
    <path
       id="path488"
       d="M121.9 57.3 c0 -2.8 -0.1 -2.8 -1.1 -0.5 -0.6 1.2 -1.7 2.2 -2.5 2.2 -1.5 0 0.2 -3.9 3.9 -9.3 2.2 -3.1 4.4 -2.8 2.7 0.4 -0.5 1.1 -1.1 3.8 -1.2 5.9 -0.1 4.5 -1.7 5.5 -1.8 1.3z" />
    <path
       id="path490"
       d="M128.7 57.8 c-3.2 -0.9 -3.7 -1.3 -3.1 -3.2 0.3 -1.1 1.3 -3.2 2.1 -4.5 1.3 -2.1 1.3 -2.5 0 -3.8 -2.3 -2.4 -5.3 -0.7 -8.5 4.8 -2.1 3.7 -3.1 4.7 -3.5 3.5 -0.4 -0.9 -0.2 -1.6 0.3 -1.6 0.5 0 0.1 -1.5 -1 -3.2 -4.5 -7.4 -1.1 -15.5 7.4 -17.7 7.7 -1.9 10.8 -1.4 14.8 2.2 4.9 4.5 6.4 10.1 4.2 15.6 -1.5 3.7 -6.6 9.3 -8.2 9 -0.4 -0.1 -2.4 -0.6 -4.5 -1.1z" />
  </g>
  <g
     id="g500"
     fill="#986733">
    <path
       id="path494"
       d="M158 143.3 c0 -2.5 -4.7 -7 -8.2 -7.8 -1.6 -0.4 -2.8 -1.1 -2.8 -1.5 0 -0.4 -1.8 -1 -4 -1.4 -2.6 -0.4 -4 -1.1 -4 -2.1 0 -1 -1.1 -1.5 -3.5 -1.5 -1.9 0 -3.5 0.5 -3.5 1 0 0.6 -1.3 1 -3 1 -2.5 0 -3 0.4 -3 2.5 0 2.3 -0.3 2.5 -5 2.5 -2.7 0 -5 -0.4 -5 -0.9 0 -0.5 -0.9 -1.1 -2 -1.4 -1.1 -0.3 -2.5 -1.9 -3.2 -3.7 -1 -3 -1.3 -3.2 -4.7 -2.6 -2 0.3 -4.2 0.6 -4.8 0.6 -0.7 0 -1.3 0.8 -1.3 1.9 0 1.5 -1 2 -5 2.5 -2.7 0.4 -5 1.1 -5 1.6 0 0.6 -1.1 1 -2.3 1 -1.3 0 -3.7 1.1 -5.3 2.5 -3.9 3.4 -6.8 3.4 -6.2 0 0.3 -1.4 0.1 -2.5 -0.4 -2.5 -0.5 0 -0.6 -1 -0.2 -2.2 0.4 -1.3 0.6 -4.2 0.5 -6.5 -0.3 -6.5 2.4 -16.6 8.6 -31.6 6.1 -15 7.5 -16.7 16.3 -20.2 8.6 -3.3 20.5 -6.5 20.8 -5.6 0.2 0.6 1 0.7 1.7 0.5 1.6 -0.7 8 4 18.7 13.7 7 6.4 8 7.8 10.7 15 2.9 7.6 8.1 30.5 8.1 35.6 l0 2.4 -2.2 -2 c-1.1 -1.1 -4.9 -3 -8.4 -4.1 l-6.3 -2.1 1.3 -3.7 c1.4 -4.4 1 -8.1 -1 -8.9 -2.5 -0.9 -4.4 1.7 -4.4 6.3 0 4.9 -0.4 5.1 -5.7 2.9 -1.9 -0.8 -4.1 -1.5 -4.7 -1.5 -1.8 0 9.1 4.5 18.8 7.6 9.8 3.2 13.9 6.7 13.4 11.3 -0.4 3.1 -3.8 4.3 -3.8 1.4z m-72.2 -11.3 c0.3 0 0.3 -0.2 0 -0.5 -0.5 -0.6 -7.8 2.2 -7.8 3 0 0.3 1.6 -0.2 3.6 -1 2 -0.8 3.9 -1.5 4.2 -1.5z m39.6 -1.9 l3.9 -3.9 -2.3 -1.2 c-2.5 -1.4 -11.7 -0.7 -13.3 0.9 -0.7 0.7 -0.2 1.7 1.7 3.2 1.6 1.2 3.3 2.8 4 3.5 1.5 1.8 1.6 1.8 6 -2.5z m-40.1 -4.1 c3.6 -1.4 3.7 -1.5 3.7 -6.5 0 -6.1 1.2 -7.5 6.1 -7.5 5.3 0 6.7 0.8 7.9 4.4 l1.1 3.3 5.5 -0.9 c5.8 -0.9 20.3 -0.5 24 0.7 1.7 0.5 2.2 0.1 3 -3.2 0.8 -3.4 1.4 -3.9 4.9 -4.7 2.2 -0.5 4.1 -1.1 4.3 -1.2 0.5 -0.3 -4.5 -12.8 -7.2 -17.9 -1.5 -2.7 -5.4 -8.1 -8.8 -11.9 l-6.1 -6.8 -6.5 0.6 c-4.1 0.4 -9.2 1.9 -14.1 4.2 -8.5 3.9 -8.3 3.6 -15.1 19.4 -5.4 12.6 -9.9 31 -7.2 29.8 0.4 -0.2 2.4 -1 4.5 -1.8z m17.2 -0.6 c3.9 -1.4 5.7 -2.3 4 -2 -1.6 0.2 -3.8 0.8 -4.7 1.1 -1.4 0.6 -1.8 0.2 -1.8 -2 0 -6.2 -5.1 -9 -7.1 -3.9 -1 2.7 0.4 9.4 1.9 9.4 0.4 0 3.9 -1.2 7.7 -2.6z m21.5 -3.4 c0 -0.5 -1.7 -1 -3.7 -0.9 -3.1 0 -3.4 0.2 -1.8 0.9 2.8 1.2 5.5 1.2 5.5 0z" />
    <path
       id="path496"
       d="M118.7 129.6 c-1.5 -1.2 -2.4 -2.5 -2.1 -2.9 1.2 -1.2 5.4 -0.8 5.4 0.6 0 0.9 0.3 0.9 0.9 -0.1 0.5 -0.8 1.5 -1.2 2.4 -1 1.2 0.2 1 0.8 -1.1 3 l-2.7 2.6 -2.8 -2.2z" />
    <path
       id="path498"
       d="M114 66.5 c0 -1.8 5.4 -12.7 8.2 -16.8 2.2 -3.1 4.4 -2.7 2.7 0.5 -0.6 1.1 -1.1 4 -1.2 6.4 0 2.5 -0.4 4.7 -0.9 5 -0.4 0.3 -0.8 1.6 -0.8 2.8 0 1.6 -0.7 2.6 -2.2 3 -3.8 1 -5.8 0.7 -5.8 -0.9z" />
  </g>
  <g
     id="g518"
     fill="#f2673b">
    <path
       id="path506"
       d="M56 151.4 c-0.6 -1.4 -1 -2.7 -1 -3 0 -0.2 28.3 -0.4 63 -0.4 53.7 0 63 0.3 63 1.5 0 0.7 1 2.1 2.2 2.9 2 1.5 -3.6 1.6 -62 1.6 l-64.2 0 -1 -2.6z" />
    <path
       id="path508"
       d="M219.8 152.8 c0.7 -0.7 1.2 -2.2 1.2 -3.5 0 -1.6 0.6 -2.3 2 -2.3 1.6 0 2 0.7 2 3.5 0 3.3 -0.2 3.5 -3.2 3.5 -2.5 0 -2.9 -0.3 -2 -1.2z" />
    <path
       id="path510"
       d="M115.2 132 c-1.3 -1.1 -2.2 -2.4 -2 -2.9 0.1 -0.5 1.9 0.3 3.8 1.9 2 1.7 2.9 2.9 2 2.9 -0.8 0 -2.6 -0.8 -3.8 -1.9z" />
    <path
       id="path512"
       d="M124.5 131 c2.9 -3.1 4.5 -3.8 4.5 -2 0 1.8 -3.4 5 -5.4 5 -1.8 0 -1.7 -0.3 0.9 -3z" />
    <path
       id="path514"
       d="M118.3 129.1 c-2.8 -2.4 -2 -3.1 3.4 -3.1 4.8 0 5 0.2 2.6 3 -2.1 2.4 -3.2 2.5 -6 0.1z" />
    <path
       id="path516"
       d="M115 123.9 c3.4 -1 12.8 -1.1 13.3 -0.1 0.3 0.4 -3.2 0.7 -7.6 0.7 -4.8 0.1 -7.2 -0.2 -5.7 -0.6z" />
  </g>
  <g
     id="g536"
     fill="#cc9b67">
    <path
       id="path520"
       d="M76 143 c0 -1.5 0.7 -2 2.5 -2 1.8 0 2.5 0.5 2.5 2 0 1.5 -0.7 2 -2.5 2 -1.8 0 -2.5 -0.5 -2.5 -2z" />
    <path
       id="path522"
       d="M85 143 c0 -1.7 0.7 -2 5 -2 4.3 0 5 0.3 5 2 0 1.7 -0.7 2 -5 2 -4.3 0 -5 -0.3 -5 -2z" />
    <path
       id="path524"
       d="M107 143 c0 -1.6 0.7 -2 3.5 -2 2.8 0 3.5 0.4 3.5 2 0 1.6 -0.7 2 -3.5 2 -2.8 0 -3.5 -0.4 -3.5 -2z" />
    <path
       id="path526"
       d="M145 143 c0 -1.1 0.5 -2 1 -2 0.6 0 1 -0.7 1 -1.5 0 -1 1.1 -1.5 3.5 -1.5 2.4 0 3.5 0.5 3.5 1.5 0 0.8 0.9 1.5 2 1.5 1.3 0 2 -0.7 2 -2 0 -1.7 -0.7 -2 -4 -2 -2.2 0 -4 -0.4 -4 -0.8 0 -0.4 -2.9 -1.7 -6.5 -2.7 -3.6 -1.1 -6.5 -2.3 -6.5 -2.6 0 -0.4 -1.3 -0.9 -3 -1.1 -1.8 -0.3 -3 0 -3 0.7 0 2.4 -5.6 6.5 -8.8 6.5 -1.8 0 -3.2 -0.4 -3.2 -1 0 -0.5 -1.1 -1 -2.5 -1 -2.1 0 -2.5 -0.5 -2.5 -3.1 l0 -3.1 3.5 2.7 3.6 2.7 3.9 -3.4 c4.5 -3.9 4.9 -5.5 1.5 -6.4 -3.8 -0.9 -15.3 0.6 -17 2.2 -2 2.1 -17.2 7.6 -22.4 8.1 -3.2 0.4 -4.5 1 -4.8 2.4 -0.4 1.3 -1.4 1.9 -3.5 1.9 -1.9 0 -2.8 -0.4 -2.6 -1.2 0.5 -1.8 16.9 -9.8 19.1 -9.4 0.9 0.2 1.7 0.1 1.7 -0.3 0 -2.4 19.3 -6.1 26.6 -5.1 7.1 1.1 31.5 9.9 34.2 12.4 3.3 2.9 4.2 4.9 3.5 7.4 -0.5 2 -1.2 2.2 -8.4 2.2 -7.2 0 -7.9 -0.2 -7.9 -2z" />
    <path
       id="path528"
       d="M164.2 141 c0 -1.9 0.2 -2.7 0.5 -1.7 0.2 0.9 0.2 2.5 0 3.5 -0.3 0.9 -0.5 0.1 -0.5 -1.8z" />
    <path
       id="path530"
       d="M76.4 127.8 c1 -10.7 3.4 -20.3 7.8 -30.8 7.5 -17.9 7.2 -17.4 15.9 -21.4 4.3 -2 8.7 -3.6 9.7 -3.6 1 0 4 -0.7 6.6 -1.6 4.1 -1.4 5 -1.4 5.7 -0.3 0.7 1.2 1 1.2 1.8 0.1 1.1 -1.8 14 12.3 17.7 19.3 2.5 4.8 8.1 18.6 10.9 27 1.5 4.5 1.5 13 0 13 -0.6 0 -2.5 -0.4 -4.3 -0.9 -2.9 -0.7 -3.3 -1.1 -2.7 -2.9 2.4 -7.5 1.3 -12 -2.6 -11 -2.3 0.6 -4.3 4.8 -3.6 7.5 0.8 2.9 -0.7 3 -8.7 0.6 -7 -2 -8.3 -2.1 -16.4 -1 -4.8 0.6 -9.6 1.4 -10.8 1.7 -1.7 0.5 -2.2 0 -3.2 -3.4 -2.2 -7.1 -8.8 -6.4 -8 0.8 0.3 2 0.7 4.2 0.9 5 0.2 0.8 -0.6 1.7 -2.1 2.1 -1.4 0.4 -5.4 2.1 -8.9 3.8 l-6.4 3 0.7 -7z" />
    <path
       id="path532"
       d="M95 123.9 c-1.4 -2.4 -1 -6.1 0.7 -6.6 0.7 -0.3 1.6 1 2.1 2.9 1.4 5.3 -0.6 8 -2.8 3.7z" />
    <path
       id="path534"
       d="M114 66.9 c0 -2 7.1 -15.3 9.2 -17.4 l2 -2 -0.8 3 c-0.4 1.7 -0.8 4.8 -0.7 7 0 3 -0.1 3.5 -0.7 2 -0.7 -1.5 -0.9 -0.9 -0.9 2.3 -0.1 4.3 -0.3 4.5 -5.3 5.6 -1.8 0.4 -2.8 0.2 -2.8 -0.5z" />
  </g>
  <g
     id="g568"
     fill="#9897cb">
    <path
       id="path538"
       d="M51.3 140.6 l-2.2 -4.4 2.2 -2 c3.6 -3.2 15.9 -12.2 16.8 -12.2 0.5 0 0.9 1.7 0.9 3.8 0 2.1 0.7 4.7 1.5 5.8 1.5 1.9 1.5 1.9 0.8 -0.1 -0.3 -1.1 -0.3 -1.7 0.1 -1.3 0.4 0.3 0.9 2.1 1.2 4 0.6 4.2 1.2 7.2 2 9.2 0.5 1.4 -0.7 1.6 -10.3 1.6 l-10.9 0 -2.1 -4.4z m18 -1.6 c-0.3 -1 -1.1 -2.5 -1.9 -3.1 -0.8 -0.6 -1.4 -1.8 -1.4 -2.5 0 -2.1 -1.4 -1.7 -4.1 1.4 -5.8 6.3 -5.8 6.2 1.4 6.2 6 0 6.5 -0.2 6 -2z" />
    <path
       id="path540"
       d="M76.1 140.5 c0 -3.4 0.2 -3.7 0.9 -1.7 0.5 1.2 1.4 2.2 2 2.2 0.5 0 1 0.9 1 1.9 0 1.4 -0.6 1.9 -2 1.8 -1.7 -0.1 -2 -0.8 -1.9 -4.2z" />
    <path
       id="path542"
       d="M164.5 143.8 c-0.3 -0.7 -0.4 -5.7 -0.2 -11.1 0.2 -6.4 -0.1 -10.1 -0.8 -10.5 -2.3 -1.4 -2.5 -4.1 -0.4 -5.3 4.9 -2.6 6 0.9 3.3 10 -0.8 2.9 -1.4 6.2 -1.2 7.4 0.3 2.2 0.4 2.2 1.5 0.2 0.6 -1.1 1.3 -3.5 1.6 -5.2 0.6 -3.7 2.9 -9.3 3.8 -9.3 0.4 0 3.9 3.1 7.9 6.8 l7.3 6.8 -3.8 5.7 -3.8 5.7 -7.4 0 c-5 0 -7.5 -0.4 -7.8 -1.2z m12.5 -3.8 c0 -0.6 -0.9 -2.4 -2.1 -3.9 -2.8 -3.8 -5.6 -3.1 -6.1 1.5 l-0.4 3.4 4.3 0 c2.4 0 4.3 -0.5 4.3 -1z" />
    <path
       id="path544"
       d="M79 136 c0 -0.8 5.1 -4 6.5 -4 0.3 0 0.5 1.1 0.5 2.5 0 2.2 -0.4 2.5 -3.5 2.5 -1.9 0 -3.5 -0.4 -3.5 -1z" />
    <path
       id="path546"
       d="M134 128.5 c0 -2.4 0.1 -2.5 3.2 -1.2 4.6 1.9 4.8 3.7 0.4 3.7 -3.2 0 -3.6 -0.3 -3.6 -2.5z" />
    <path
       id="path548"
       d="M72.1 123.8 c-0.1 -2.7 0.4 -4.8 0.9 -4.8 1.2 0 1.2 3.4 0 7 -0.7 2 -0.8 1.6 -0.9 -2.2z" />
    <path
       id="path550"
       d="M141 123.4 c0 -4 1.6 -7.7 3.1 -6.9 1.3 0.8 1.1 4.9 -0.3 8 -1.6 3.5 -2.8 3.1 -2.8 -1.1z" />
    <path
       id="path552"
       d="M95 124.1 c-1.3 -2.6 -1.3 -5.8 0.1 -6.7 1.6 -0.9 2.9 1.5 2.9 5.4 0 3.6 -1.4 4.2 -3 1.3z" />
    <path
       id="path554"
       d="M115 123.9 c0 -1.1 4.3 -1.9 5.8 -1 1.1 0.6 0.4 1 -2.2 1.3 -2 0.2 -3.6 0.1 -3.6 -0.3z" />
    <path
       id="path566"
       d="M120 59 c0 -3 0.4 -4 1.6 -4 1.1 0 1.4 0.5 1 1.6 -0.3 0.9 -0.6 2.7 -0.6 4 0 1.3 -0.4 2.4 -1 2.4 -0.5 0 -1 -1.8 -1 -4z" />
  </g>
  <g
     id="g578"
     fill="#cbcb64">
    <path
       id="path570"
       d="M77.3 144.3 c-0.7 -0.3 -1.3 -1.1 -1.3 -1.9 0 -1.2 5.4 -1.4 34.8 -1.4 l34.9 0 1.4 -2.7 c0.7 -1.6 1.5 -3.1 1.7 -3.5 0.2 -0.5 -0.7 -0.8 -2 -0.8 -4.3 0 -6.8 -1.2 -6.8 -3.1 0 -1.1 0.6 -1.9 1.3 -1.9 1.9 0 11.2 3.4 11.5 4.3 0.2 0.4 1.2 0.7 2.1 0.7 2.5 0 6.1 4.2 6.1 7.2 0 2.5 0 2.5 -11.2 3.2 -12.1 0.7 -70.5 0.6 -72.5 -0.1z" />
    <path
       id="path572"
       d="M93 131 c0 -1.3 0.7 -2 1.9 -2 1.1 0 2.3 -0.4 2.6 -1 1.2 -2 2.5 -0.9 2.5 2 0 2.8 -0.3 3 -3.5 3 -2.8 0 -3.5 -0.4 -3.5 -2z" />
    <path
       id="path574"
       d="M109 127.1 c0 -2.9 1.4 -4.1 5.1 -4.1 1 0 1.9 0.5 1.9 1 0 0.6 -0.7 1 -1.5 1 -1.8 0 -2 2.1 -0.3 3.8 0.9 0.9 0.5 1.2 -2 1.2 -2.9 0 -3.2 -0.3 -3.2 -2.9z" />
    <path
       id="path576"
       d="M114.5 65.8 c1.7 -5.4 9.2 -18.5 10.1 -17.6 0.2 0.2 -0.3 2.6 -1.1 5.3 -0.8 2.6 -1.5 6 -1.5 7.5 0 3.4 -1.8 5.6 -5.3 6.4 -2.6 0.6 -2.8 0.5 -2.2 -1.6z" />
  </g>
  <g
     id="g610"
     fill="#d0cde6">
    <path
       id="path580"
       d="M52.5 142 c-0.8 -2.4 4.8 -9.5 11.8 -15.3 l4.3 -3.5 -0.3 2.6 c-0.2 1.5 0.3 3.8 1.1 5.2 2.3 3.8 3.2 6.2 3.9 9.8 l0.7 3.2 -10.5 0 c-9.5 0 -10.4 -0.2 -11 -2z" />
    <path
       id="path582"
       d="M76 141.6 c0 -1.9 0.4 -2.3 2 -1.9 1.1 0.3 2 1.4 2 2.4 0 1.2 -0.7 1.9 -2 1.9 -1.4 0 -2 -0.7 -2 -2.4z" />
    <path
       id="path584"
       d="M164.3 142.5 c-0.3 -0.9 0.9 -4.6 2.6 -8.4 1.7 -3.7 3.1 -7.3 3.1 -7.9 0 -2.3 1.6 -1.1 5.7 4.2 8.8 11.3 8.3 13.6 -3.4 13.6 -5.7 0 -7.5 -0.3 -8 -1.5z" />
    <path
       id="path586"
       d="M81 135.4 c0 -1.2 3.4 -3.3 5.3 -3.4 1 0 1.7 0.7 1.7 2 0 1.6 -0.7 2 -3.5 2 -1.9 0 -3.5 -0.3 -3.5 -0.6z" />
    <path
       id="path588"
       d="M133 128.5 c0 -1.4 0.1 -2.5 0.3 -2.5 0.1 0 2.4 0.8 5.1 1.9 4.3 1.6 4.6 1.9 2.5 2.4 -1.3 0.4 -3.6 0.7 -5.1 0.7 -2.3 0 -2.8 -0.4 -2.8 -2.5z" />
    <path
       id="path590"
       d="M97.4 128.1 c0.3 -0.5 1.4 -1.1 2.5 -1.4 1.4 -0.3 1.8 -0.1 1.4 0.9 -0.3 0.8 -1.4 1.4 -2.5 1.4 -1 0 -1.7 -0.4 -1.4 -0.9z" />
    <path
       id="path592"
       d="M141 123.6 c0 -4.4 0.9 -6.6 2.6 -6.6 1.7 0 1.8 2.3 0.2 6.7 -1.6 4.3 -2.8 4.2 -2.8 -0.1z" />
    <path
       id="path594"
       d="M95 123.4 c-1.2 -3.2 -1.3 -5.1 -0.1 -5.8 1.7 -1.1 3.6 3 3.2 7.2 -0.2 2.1 -2.1 1.3 -3.1 -1.4z" />
  </g>
  <g
     id="g614"
     fill="#faf9cf">
    <path
       id="path612"
       d="M76.7 143.3 c-1.6 -1.5 -0.6 -6.1 1.6 -7.5 4.3 -2.7 15.7 -7 17.1 -6.5 0.8 0.3 1.6 0.1 1.8 -0.5 0.7 -2 10.3 -4.9 17.8 -5.3 6.6 -0.4 7 -0.3 3.1 0.5 -2.5 0.5 -4.9 1.4 -5.3 1.8 -1 1 6.7 8.2 8.7 8.2 2 0 7.8 -6.8 7.2 -8.4 -0.8 -2 -0.4 -2 4.1 0.2 2 1 7.4 2.9 12 4.2 7.9 2.4 8.2 2.6 7.7 5 -0.3 1.4 -1.3 4 -2.3 5.8 l-1.7 3.2 -35.6 0 c-19.5 0 -35.9 -0.3 -36.2 -0.7z" />
  </g>
  <g
     id="g622"
     fill="#ffffff">
    <path
       id="path616"
       d="M95.4 122.5 c-0.7 -3.9 0.2 -5.8 1.6 -3.5 1.3 1.9 1.3 5.7 0.1 6.5 -0.6 0.3 -1.3 -1.1 -1.7 -3z" />
    <path
       id="path618"
       d="M141.8 122 c0.4 -4.3 1.8 -6.1 2.8 -3.5 0.6 1.6 -1.3 7.5 -2.5 7.5 -0.4 0 -0.5 -1.8 -0.3 -4z" />
  </g>
</svg>
